<svg xmlns="http://www.w3.org/2000/svg" viewBox="0 0 256 256" width="256" height="256">
  <defs>
    <linearGradient id="bg" x1="40" y1="20" x2="216" y2="236" gradientUnits="userSpaceOnUse">
      <stop offset="0" stop-color="#ffffff"/>
      <stop offset="1" stop-color="#e6f4f5"/>
    </linearGradient>
    <linearGradient id="tower" x1="92" y1="54" x2="164" y2="214" gradientUnits="userSpaceOnUse">
      <stop offset="0" stop-color="#1E3A8A"/>
      <stop offset="1" stop-color="#10245f"/>
    </linearGradient>
    <linearGradient id="teal" x1="68" y1="84" x2="186" y2="184" gradientUnits="userSpaceOnUse">
      <stop offset="0" stop-color="#13c2bd"/>
      <stop offset="1" stop-color="#0EA5A4"/>
    </linearGradient>
    <filter id="shadow" x="-15%" y="-15%" width="130%" height="130%">
      <feDropShadow dx="0" dy="8" stdDeviation="8" flood-color="#0f172a" flood-opacity="0.18"/>
    </filter>
  </defs>

  <rect x="18" y="18" width="220" height="220" rx="38" fill="url(#bg)"/>
  <rect x="18" y="18" width="220" height="220" rx="38" fill="none" stroke="#d7e6ea" stroke-width="4"/>

  <g filter="url(#shadow)">
    <path d="M96 214h64l-11-82h-42z" fill="url(#tower)"/>
    <path d="M108 132h40l-7-38h-26z" fill="#0f2d73"/>
    <rect x="77" y="70" width="102" height="34" rx="9" fill="url(#tower)"/>
    <rect x="94" y="80" width="68" height="14" rx="4" fill="#dff7f7" opacity="0.96"/>
    <path d="M100 214l28-82 28 82" fill="none" stroke="#dff7f7" stroke-width="5" stroke-linecap="round" opacity="0.86"/>
  </g>

  <g opacity="0.98">
    <path d="M62 74a86 86 0 0 1 132 0" fill="none" stroke="#0EA5A4" stroke-width="7" stroke-linecap="round"/>
    <path d="M77 58a72 72 0 0 1 102 0" fill="none" stroke="#1E3A8A" stroke-width="5" stroke-linecap="round" opacity="0.85"/>
    <circle cx="128" cy="87" r="8" fill="#F59E0B"/>
  </g>

  <g transform="translate(72 111)">
    <rect x="0" y="0" width="112" height="62" rx="12" fill="#ffffff" stroke="#c9d8df" stroke-width="3"/>
    <rect x="14" y="34" width="13" height="16" rx="3" fill="#0EA5A4"/>
    <rect x="36" y="25" width="13" height="25" rx="3" fill="#1E3A8A"/>
    <rect x="58" y="17" width="13" height="33" rx="3" fill="#F59E0B"/>
    <path d="M89 17a18 18 0 1 1-15 28l15-10z" fill="#0EA5A4"/>
    <path d="M89 17a18 18 0 0 1 17 13H89z" fill="#1E3A8A"/>
    <path d="M89 35l15-10a18 18 0 0 1 2 10z" fill="#F59E0B"/>
  </g>

  <g fill="#1E3A8A">
    <circle cx="62" cy="176" r="11"/>
    <path d="M42 211c3-19 37-19 40 0z"/>
    <circle cx="194" cy="176" r="11"/>
    <path d="M174 211c3-19 37-19 40 0z"/>
  </g>

  <g fill="#0EA5A4">
    <circle cx="89" cy="195" r="9"/>
    <path d="M72 224c3-15 31-15 34 0z"/>
    <circle cx="167" cy="195" r="9"/>
    <path d="M150 224c3-15 31-15 34 0z"/>
  </g>
</svg>
